<svg width="119" height="119" viewBox="0 0 119 119" fill="none" xmlns="http://www.w3.org/2000/svg">
<rect width="119" height="119" rx="27" fill="#D85353"/>
<circle cx="60" cy="59" r="33" stroke="white" stroke-width="6"/>
<path d="M65.4737 60.4209C65.4737 61.9912 64.2489 63.2631 62.7368 63.2631C61.9733 63.2631 61.2836 62.9376 60.7868 62.4147C61.1919 63.8428 61.8063 65.1388 62.7368 66.1052H57.2632C58.1937 65.1388 58.8081 63.8428 59.2132 62.4147C58.7164 62.9376 58.0267 63.2631 57.2632 63.2631C55.751 63.2631 54.5263 61.9912 54.5263 60.4209C54.5263 57.1056 60 53.3157 60 53.3157C60 53.3157 65.4737 57.1056 65.4737 60.4209ZM72.3158 46.2104V76.0525H47.6842V46.2104C47.6842 43.86 49.5261 41.9473 51.7895 41.9473H68.2105C70.4739 41.9473 72.3158 43.86 72.3158 46.2104ZM69.5789 46.2104C69.5789 45.4274 68.9659 44.7894 68.2105 44.7894H51.7895C51.0341 44.7894 50.421 45.4274 50.421 46.2104V73.2104H69.5789V46.2104Z" fill="white"/>
</svg>
